<svg width="823" height="241" viewBox="0 0 823 241" fill="none" xmlns="http://www.w3.org/2000/svg">
<g id="Logo">
<g id="Tekst">
<path d="M7.25 204V114H90.125V130.625H23.875V150.625H77.125V167.375H23.875V187.375H90.125V204H7.25ZM115.828 204C112.578 204 109.661 203.208 107.078 201.625C104.495 200.042 102.411 197.958 100.828 195.375C99.3281 192.792 98.5781 189.917 98.5781 186.75V148.75C98.5781 145.583 99.3281 142.708 100.828 140.125C102.411 137.542 104.495 135.458 107.078 133.875C109.661 132.292 112.578 131.5 115.828 131.5H155.953V107.75H172.328V204H115.828ZM116.578 187.625H154.453C154.87 187.625 155.203 187.5 155.453 187.25C155.786 186.917 155.953 186.542 155.953 186.125V149.375C155.953 148.958 155.786 148.625 155.453 148.375C155.203 148.042 154.87 147.875 154.453 147.875H116.578C116.161 147.875 115.786 148.042 115.453 148.375C115.203 148.625 115.078 148.958 115.078 149.375V186.125C115.078 186.542 115.203 186.917 115.453 187.25C115.786 187.5 116.161 187.625 116.578 187.625ZM199.9 204C196.734 204 193.817 203.208 191.15 201.625C188.567 200.042 186.484 197.958 184.9 195.375C183.4 192.792 182.65 189.917 182.65 186.75V131.5H199.025V186.125C199.025 186.542 199.15 186.917 199.4 187.25C199.734 187.5 200.109 187.625 200.525 187.625H238.4C238.817 187.625 239.15 187.5 239.4 187.25C239.734 186.917 239.9 186.542 239.9 186.125V131.5H256.275V186.75C256.275 189.917 255.484 192.792 253.9 195.375C252.4 197.958 250.359 200.042 247.775 201.625C245.192 203.208 242.275 204 239.025 204H199.9ZM283.635 204C280.468 204 277.593 203.208 275.01 201.625C272.426 200.042 270.343 197.958 268.76 195.375C267.176 192.792 266.385 189.917 266.385 186.75V148.75C266.385 145.583 267.176 142.708 268.76 140.125C270.343 137.542 272.426 135.458 275.01 133.875C277.593 132.292 280.468 131.5 283.635 131.5H339.885V147.875H284.26C283.843 147.875 283.468 148.042 283.135 148.375C282.885 148.625 282.76 148.958 282.76 149.375V186.125C282.76 186.542 282.885 186.917 283.135 187.25C283.468 187.5 283.843 187.625 284.26 187.625H340.01V204H283.635ZM369.819 204C366.653 204 363.736 203.208 361.069 201.625C358.486 200.042 356.403 197.958 354.819 195.375C353.319 192.792 352.569 189.917 352.569 186.75V159.5H409.819V149.375C409.819 148.958 409.653 148.625 409.319 148.375C409.069 148.042 408.736 147.875 408.319 147.875H352.569V131.5H408.944C412.111 131.5 414.986 132.292 417.569 133.875C420.236 135.458 422.319 137.542 423.819 140.125C425.403 142.708 426.194 145.583 426.194 148.75V204H369.819ZM370.444 187.625H409.819V174.25H368.944V186.125C368.944 186.542 369.069 186.917 369.319 187.25C369.653 187.5 370.028 187.625 370.444 187.625ZM456.736 204C453.57 204 450.695 203.208 448.111 201.625C445.528 200.042 443.445 197.958 441.861 195.375C440.278 192.792 439.486 189.917 439.486 186.75V109.25H455.861V131.5H484.111V147.875H455.861V186.125C455.861 186.542 455.986 186.917 456.236 187.25C456.57 187.5 456.945 187.625 457.361 187.625H484.111V204H456.736ZM494.293 204V131.5H510.668V204H494.293ZM494.293 124.25V107.75H510.668V124.25H494.293ZM539.128 204C535.961 204 533.086 203.208 530.503 201.625C527.92 200.042 525.836 197.958 524.253 195.375C522.67 192.792 521.878 189.917 521.878 186.75V148.75C521.878 145.583 522.67 142.708 524.253 140.125C525.836 137.542 527.92 135.458 530.503 133.875C533.086 132.292 535.961 131.5 539.128 131.5H578.253C581.42 131.5 584.295 132.292 586.878 133.875C589.545 135.458 591.628 137.542 593.128 140.125C594.711 142.708 595.503 145.583 595.503 148.75V186.75C595.503 189.917 594.711 192.792 593.128 195.375C591.628 197.958 589.586 200.042 587.003 201.625C584.42 203.208 581.503 204 578.253 204H539.128ZM539.753 187.625H577.628C578.045 187.625 578.378 187.5 578.628 187.25C578.961 186.917 579.128 186.542 579.128 186.125V149.375C579.128 148.958 578.961 148.625 578.628 148.375C578.378 148.042 578.045 147.875 577.628 147.875H539.753C539.336 147.875 538.961 148.042 538.628 148.375C538.378 148.625 538.253 148.958 538.253 149.375V186.125C538.253 186.542 538.378 186.917 538.628 187.25C538.961 187.5 539.336 187.625 539.753 187.625ZM605.749 204V131.5H662.124C665.291 131.5 668.166 132.292 670.749 133.875C673.416 135.458 675.499 137.542 676.999 140.125C678.582 142.708 679.374 145.583 679.374 148.75V204H662.999V149.375C662.999 148.958 662.832 148.625 662.499 148.375C662.249 148.042 661.916 147.875 661.499 147.875H623.624C623.207 147.875 622.832 148.042 622.499 148.375C622.249 148.625 622.124 148.958 622.124 149.375V204H605.749Z" fill="#555555"/>
<path d="M777.98 204L752.635 167.185L730.99 204H689.735L732.1 137.215L688.255 73.575H730.99L755.595 109.465L776.685 73.575H817.94L776.13 139.25L820.715 204H777.98Z" fill="url(#paint0_radial_155_4)"/>
</g>
<path id="Promien" d="M688 73.0182L699.153 73.0123L722.259 73C722.259 73 714.908 76.3016 708.178 84.9881C701.449 93.6745 697.026 86.3764 697.026 86.3764L688 73.0182Z" fill="white" fill-opacity="0.4"/>
<g id="Szklo">
<rect x="717" y="95" width="77" height="87" rx="5" fill="white" fill-opacity="0.4"/>
<rect x="718" y="96" width="75" height="85" rx="4" stroke="white" stroke-opacity="0.4" stroke-width="2"/>
</g>
</g>
<defs>
<radialGradient id="paint0_radial_155_4" cx="0" cy="0" r="1" gradientUnits="userSpaceOnUse" gradientTransform="translate(633.372) rotate(64.8437) scale(270.905 782.009)">
<stop offset="0.235797" stop-color="white"/>
<stop offset="0.692708" stop-color="#21A8F6"/>
<stop offset="1"/>
</radialGradient>
</defs>
</svg>
